<svg width="60" height="60" viewBox="0 0 60 60" fill="none" xmlns="http://www.w3.org/2000/svg">
<rect width="60" height="60" rx="12" fill="white"/>
<path d="M10 40.4441V16.4444C10 13.9898 11.9898 12 14.4444 12H22.6099C23.6969 12 24.2418 12 24.7532 12.1228C25.2067 12.2317 25.6395 12.4117 26.0371 12.6554C26.4855 12.9301 26.8705 13.3151 27.6387 14.0833L29.9998 16.4444H42.8885C45.3776 16.4444 46.6213 16.4444 47.572 16.9288C48.4082 17.3549 49.0895 18.0343 49.5156 18.8706C50 19.8213 50 21.0658 50 23.5549L50 40.4437C50 42.9328 50 44.1773 49.5156 45.128C49.0895 45.9643 48.4078 46.6451 47.5715 47.0712C46.6218 47.5551 45.3796 47.5551 42.8954 47.5551H17.1042C14.6199 47.5551 13.376 47.5551 12.4262 47.0712C11.5899 46.6451 10.9105 45.9639 10.4844 45.1276C10 44.1769 10 42.9332 10 40.4441Z" fill="#FF7452"/>
<path d="M10 16.4444V40.4441C10 42.9332 10 44.1769 10.4844 45.1276C10.9105 45.9639 11.5899 46.6451 12.4262 47.0712C13.376 47.5551 14.6199 47.5551 17.1042 47.5551H42.8954C45.3796 47.5551 46.6218 47.5551 47.5715 47.0712C48.4078 46.6451 49.0895 45.9643 49.5156 45.128C50 44.1773 50 42.9328 50 40.4437L50 23.5549C50 21.0658 50 19.8213 49.5156 18.8706C49.0895 18.0343 48.4082 17.3549 47.572 16.9288C46.6213 16.4444 45.3776 16.4444 42.8885 16.4444H29.9998M10 16.4444H29.9998M10 16.4444C10 13.9898 11.9898 12 14.4444 12H22.6099C23.6969 12 24.2418 12 24.7532 12.1228C25.2067 12.2317 25.6395 12.4117 26.0371 12.6554C26.4855 12.9301 26.8705 13.3151 27.6387 14.0833L29.9998 16.4444" stroke="#FFB9A8" stroke-width="2" stroke-linecap="round" stroke-linejoin="round"/>
</svg>
