<svg width="60" height="60" viewBox="0 0 60 60" fill="none" xmlns="http://www.w3.org/2000/svg">
<rect width="60" height="60" rx="12" fill="white"/>
<path d="M39.9991 45.1936L49.1975 15.2988L49.1989 15.2957C49.8465 13.1909 50.1706 12.1376 49.9095 11.4263C49.6819 10.8064 49.1932 10.3182 48.5734 10.0906C47.8617 9.82937 46.8079 10.1532 44.701 10.8015L14.8062 19.9999C12.1262 20.8245 10.7861 21.2376 10.3418 21.9487C9.95648 22.5654 9.89292 23.3297 10.1716 24.0013C10.493 24.7758 11.747 25.4034 14.255 26.6573L25.9341 32.4969C26.3143 32.687 26.5092 32.7844 26.6777 32.9143C26.8307 33.0322 26.9668 33.1701 27.0848 33.3231C27.2177 33.4956 27.3173 33.6937 27.5163 34.0917L33.3424 45.744C34.5964 48.2519 35.2249 49.5069 35.9994 49.8282C36.6711 50.1069 37.4346 50.0425 38.0513 49.6572C38.7623 49.2129 39.1748 47.8727 39.9991 45.1936Z" fill="#3C77E5"/>
<path d="M27.1528 32.8465L38.0501 21.9492M49.1975 15.2988L39.9991 45.1936C39.1748 47.8727 38.7623 49.2129 38.0513 49.6572C37.4346 50.0425 36.6711 50.1069 35.9994 49.8282C35.2249 49.5069 34.5964 48.2519 33.3424 45.744L27.5163 34.0917C27.3173 33.6937 27.2177 33.4956 27.0848 33.3231C26.9668 33.1701 26.8307 33.0322 26.6777 32.9143C26.5092 32.7844 26.3143 32.687 25.9341 32.4969L14.255 26.6573C11.747 25.4034 10.493 24.7758 10.1716 24.0013C9.89292 23.3297 9.95648 22.5654 10.3418 21.9487C10.7861 21.2376 12.1262 20.8245 14.8062 19.9999L44.701 10.8015C46.8079 10.1532 47.8617 9.82937 48.5734 10.0906C49.1932 10.3182 49.6819 10.8064 49.9095 11.4263C50.1706 12.1376 49.8465 13.1909 49.1989 15.2957L49.1975 15.2988Z" stroke="#92C1FF" stroke-width="2" stroke-linecap="round" stroke-linejoin="round"/>
</svg>
