<svg width="32" height="32" viewBox="0 0 32 32" fill="none" xmlns="http://www.w3.org/2000/svg">
<path d="M17.3334 9.99998C17.3334 11.8409 18.8258 13.3333 20.6667 13.3333C22.5077 13.3333 24.0001 11.8409 24.0001 9.99998V8.13331C24.0001 6.58692 22.7465 5.33331 21.2001 5.33331H20.1334C18.587 5.33331 17.3334 6.58692 17.3334 8.13331V9.99998Z" fill="#52C88A"/>
<path fill-rule="evenodd" clip-rule="evenodd" d="M14.7603 16.8801L14.6649 17.3333H11.8774C11.8974 16.7558 11.7505 16.1755 11.4401 15.6667L10.5468 14.0401C10.1273 13.3086 9.48157 12.733 8.70682 12.4001L6.97348 11.6534C6.06413 11.2969 5.03263 11.4661 4.2848 12.0944C3.53696 12.7227 3.19245 13.7095 3.38682 14.6667L3.64015 17.5467C3.64586 17.6692 3.65939 17.7896 3.68026 17.9074C3.06288 18.3958 2.66675 19.1516 2.66675 20V24C2.66675 25.4727 3.86066 26.6666 5.33341 26.6666H26.6667C28.1395 26.6666 29.3334 25.4727 29.3334 24V20C29.3334 18.5272 28.1395 17.3333 26.6667 17.3333H26.362L26.2936 16.8801C26.0511 15.5024 24.8656 14.4903 23.467 14.4668H17.587C16.1883 14.4903 15.0028 15.5024 14.7603 16.8801ZM6.66675 23H25.3334C25.8857 23 26.3334 22.5523 26.3334 22C26.3334 21.4477 25.8857 21 25.3334 21H6.66675C6.11446 21 5.66675 21.4477 5.66675 22C5.66675 22.5523 6.11446 23 6.66675 23Z" fill="#52C88A"/>
</svg>
