<svg width="60" height="60" viewBox="0 0 60 60" fill="none" xmlns="http://www.w3.org/2000/svg">
<rect width="60" height="60" rx="12" fill="white"/>
<path d="M38.3334 15.4167C38.3334 13.1155 40.1989 11.25 42.5 11.25C44.8012 11.25 46.6667 13.1155 46.6667 15.4167C46.6667 17.7179 44.8012 19.5833 42.5 19.5833C40.9646 19.5833 39.6231 18.7528 38.9004 17.5165C38.5399 16.8999 38.3334 16.1824 38.3334 15.4167Z" fill="#57D9A3"/>
<path d="M38.3334 44.5833C38.3334 43.8176 38.5399 43.1001 38.9004 42.4835C39.6231 41.2472 40.9646 40.4167 42.5 40.4167C44.8012 40.4167 46.6667 42.2821 46.6667 44.5833C46.6667 46.8845 44.8012 48.75 42.5 48.75C40.1989 48.75 38.3334 46.8845 38.3334 44.5833Z" fill="#57D9A3"/>
<path d="M13.3334 30C13.3334 27.6988 15.1989 25.8333 17.5 25.8333C19.0355 25.8333 20.377 26.6639 21.0997 27.9002C21.4601 28.5168 21.6667 29.2343 21.6667 30C21.6667 30.7657 21.4601 31.4832 21.0997 32.0998C20.377 33.3361 19.0355 34.1667 17.5 34.1667C15.1989 34.1667 13.3334 32.3012 13.3334 30Z" fill="#57D9A3"/>
<path d="M38.9004 17.5165C39.6231 18.7528 40.9646 19.5833 42.5 19.5833C44.8012 19.5833 46.6667 17.7179 46.6667 15.4167C46.6667 13.1155 44.8012 11.25 42.5 11.25C40.1989 11.25 38.3334 13.1155 38.3334 15.4167C38.3334 16.1824 38.5399 16.8999 38.9004 17.5165ZM38.9004 17.5165L21.0997 27.9002M21.0997 27.9002C20.377 26.6639 19.0355 25.8333 17.5 25.8333C15.1989 25.8333 13.3334 27.6988 13.3334 30C13.3334 32.3012 15.1989 34.1667 17.5 34.1667C19.0355 34.1667 20.377 33.3361 21.0997 32.0998M21.0997 27.9002C21.4601 28.5168 21.6667 29.2343 21.6667 30C21.6667 30.7657 21.4601 31.4832 21.0997 32.0998M21.0997 32.0998L38.9004 42.4835M38.9004 42.4835C39.6231 41.2472 40.9646 40.4167 42.5 40.4167C44.8012 40.4167 46.6667 42.2821 46.6667 44.5833C46.6667 46.8845 44.8012 48.75 42.5 48.75C40.1989 48.75 38.3334 46.8845 38.3334 44.5833C38.3334 43.8176 38.5399 43.1001 38.9004 42.4835Z" stroke="#AAEBD0" stroke-width="2" stroke-linecap="round" stroke-linejoin="round"/>
</svg>
