<svg width="32" height="32" viewBox="0 0 32 32" fill="none" xmlns="http://www.w3.org/2000/svg">
<path d="M11.8933 16H12C14.9455 16 17.3333 13.6122 17.3333 10.6667V8.57332C17.3298 7.37696 16.8493 6.2314 15.9984 5.39046C15.1474 4.54953 13.9963 4.08266 12.8 4.09332H11.04C8.56876 4.10064 6.56728 6.10212 6.55996 8.57332V10.6667C6.55996 13.6122 8.94777 16 11.8933 16Z" fill="#FF954E"/>
<path d="M23.3333 15C25.5424 15 27.3333 13.2091 27.3333 11V9.46665C27.3334 7.62134 25.8452 6.1213 24 6.10665H22.6666C20.8214 6.1213 19.3332 7.62134 19.3333 9.46665V11C19.3333 13.2091 21.1242 15 23.3333 15Z" fill="#FF954E"/>
<path d="M29.8533 20.56L29.64 19.5067C29.3878 18.0607 28.1344 17.004 26.6666 17H18.5333C17.5394 17.0021 16.6128 17.5029 16.0666 18.3333H6.66662C5.72353 18.334 4.81669 18.6967 4.13329 19.3467C3.54613 19.8847 3.13294 20.5857 2.94662 21.36C2.94662 21.4267 2.94662 21.4933 2.94662 21.5467V21.8933L2.66662 22.96C2.38144 24.127 2.63584 25.3603 3.35952 26.3192C4.0832 27.2781 5.19952 27.8609 6.39995 27.9067H17.44C17.7233 27.9057 18.0054 27.8699 18.28 27.8H18.4533C18.6537 27.7429 18.8497 27.6716 19.04 27.5867L19.2533 27.4667C19.4124 27.3768 19.564 27.2743 19.7066 27.16L19.92 26.9867C20.0511 26.8644 20.1757 26.7353 20.2933 26.6C20.2933 26.5333 20.4133 26.48 20.4666 26.4C20.6156 26.2042 20.7451 25.9943 20.8533 25.7733C20.9102 25.6522 20.9592 25.5275 21 25.4C21.0524 25.2785 21.0969 25.1538 21.1333 25.0267C21.1333 24.8933 21.2 24.76 21.2266 24.6267V24.4267H26.9333C27.8748 24.3988 28.7529 23.9452 29.3205 23.1935C29.8882 22.4419 30.0841 21.4732 29.8533 20.56Z" fill="#FF954E"/>
</svg>
