<svg width="32" height="32" viewBox="0 0 32 32" fill="none" xmlns="http://www.w3.org/2000/svg">
<path fill-rule="evenodd" clip-rule="evenodd" d="M28.6001 13.5067V13.88C29.2605 14.7093 29.5281 15.7846 29.3334 16.8267L26.5601 25.4933C26.0154 26.9049 24.6597 27.8369 23.1467 27.84H6.26675C4.2811 27.7969 2.68787 26.186 2.66675 24.2V9.17334C2.6665 6.43774 4.86473 4.20981 7.60008 4.17334H13.3334C15.1744 4.17334 16.6667 5.66572 16.6667 7.50667C16.6667 8.24305 17.2637 8.84001 18.0001 8.84001H24.0001C26.5513 8.87646 28.6003 10.9552 28.6001 13.5067ZM7.60008 6.17334C5.94323 6.17334 4.60008 7.51649 4.60008 9.17334V18.6667L6.02675 14.96C6.55744 13.5184 7.93054 12.5604 9.46675 12.56H25.8001C26.0308 12.5399 26.2627 12.5399 26.4934 12.56C26.1002 11.5245 25.1078 10.8399 24.0001 10.84H18.0001C16.1622 10.8327 14.6741 9.34459 14.6667 7.50667C14.6667 6.77029 14.0698 6.17334 13.3334 6.17334H7.60008Z" fill="#3395FF"/>
<path d="M22.7605 25.5884H19.2395C18.856 25.5744 18.4987 25.39 18.2653 25.0853C18.0319 24.7807 17.9467 24.3877 18.0329 24.0138L18.124 23.5813C18.2287 22.9957 18.7321 22.5654 19.3268 22.553H22.6732C23.2679 22.5654 23.7713 22.9957 23.876 23.5813L23.9671 24.0138C24.0533 24.3877 23.9681 24.7807 23.7347 25.0853C23.5013 25.39 23.144 25.5744 22.7605 25.5884Z" fill="white"/>
<path d="M21.1897 21.7942H20.8103C19.9721 21.7942 19.2926 21.1147 19.2926 20.2765V19.2749C19.2916 18.9364 19.4256 18.6116 19.6649 18.3723C19.9042 18.133 20.229 17.999 20.5675 18H21.4325C21.771 17.999 22.0958 18.133 22.3351 18.3723C22.5744 18.6116 22.7084 18.9364 22.7074 19.2749V20.2765C22.7074 20.679 22.5475 21.0651 22.2629 21.3497C21.9782 21.6343 21.5922 21.7942 21.1897 21.7942Z" fill="white"/>
</svg>
