<svg width="20" height="20" viewBox="0 0 20 20" fill="none" xmlns="http://www.w3.org/2000/svg">
<path d="M8.58979 11.4101L12.6283 7.37166M16.7594 4.90707L13.3505 15.9859C13.045 16.9787 12.8922 17.4754 12.6287 17.64C12.4001 17.7828 12.1172 17.8067 11.8683 17.7034C11.5813 17.5843 11.3483 17.1193 10.8836 16.1898L8.72448 11.8716C8.65073 11.7241 8.61382 11.6507 8.56457 11.5868C8.52085 11.53 8.47041 11.479 8.4137 11.4352C8.35125 11.3871 8.27904 11.351 8.13813 11.2806L3.80993 9.11646C2.8805 8.65175 2.41575 8.41918 2.29666 8.13216C2.19338 7.88325 2.21693 7.60003 2.35973 7.37148C2.52439 7.10795 3.02102 6.95486 4.01419 6.64927L15.093 3.2404C15.8738 3.00015 16.2644 2.88012 16.5281 2.97695C16.7578 3.06128 16.9389 3.24221 17.0233 3.47193C17.12 3.73553 16.9999 4.12589 16.7599 4.90591L16.7594 4.90707Z" stroke="#667085" stroke-width="1.67" stroke-linecap="round" stroke-linejoin="round"/>
</svg>
