<svg width="32" height="32" viewBox="0 0 32 32" fill="none" xmlns="http://www.w3.org/2000/svg">
<path d="M17.6533 20.8267L13.1066 21.8C12.9293 21.8195 12.7505 21.8195 12.5733 21.8C11.9426 21.8055 11.3365 21.5554 10.8933 21.1067C10.3236 20.5223 10.0878 19.6896 10.2666 18.8934L11.2399 14.36C11.4467 13.4686 11.9103 12.6574 12.5733 12.0267L20.1733 4.42668H8.17326C6.68611 4.40861 5.2546 4.9914 4.20295 6.04305C3.15131 7.09469 2.56852 8.52621 2.58659 10.0134V23.8134C2.58659 26.862 5.05798 29.3334 8.10659 29.3334H21.9199C24.9685 29.3334 27.4399 26.862 27.4399 23.8134V12.0934L19.9999 19.5467C19.3592 20.193 18.5436 20.638 17.6533 20.8267Z" fill="#FF7452"/>
<path fill-rule="evenodd" clip-rule="evenodd" d="M22.3599 4.14668C23.903 2.37636 26.5822 2.17439 28.3733 3.69335C29.124 4.55772 29.4983 5.68611 29.4132 6.82779C29.3281 7.96947 28.7905 9.02987 27.9199 9.77335L19.0266 18.6667C18.5576 19.1103 17.9689 19.407 17.3333 19.52L12.8266 20.5334C12.4558 20.6414 12.0557 20.5323 11.7912 20.2509C11.5267 19.9695 11.4425 19.5634 11.5733 19.2L12.5466 14.6667C12.6953 14.0492 13.014 13.4857 13.4666 13.04L22.3599 4.14668ZM22.9066 10.36L25.8933 7.37335C26.2604 6.97934 26.2496 6.36534 25.8687 5.98452C25.4879 5.60371 24.8739 5.59287 24.4799 5.96002L21.4933 8.94668C21.1033 9.33711 21.1033 9.96959 21.4933 10.36C21.8837 10.75 22.5162 10.75 22.9066 10.36Z" fill="#FF7452"/>
</svg>
